<?xml version="1.0" encoding="iso-8859-1"?>
<!-- Generator: Adobe Illustrator 19.0.0, SVG Export Plug-In . SVG Version: 6.00 Build 0)  -->
<svg version="1.1" id="Capa_1" xmlns="http://www.w3.org/2000/svg" xmlns:xlink="http://www.w3.org/1999/xlink" x="0px" y="0px"
	 viewBox="0 0 512.002 512.002" style="enable-background:new 0 0 512.002 512.002;" xml:space="preserve">
<g>
	<g>
		<path d="M288.672,244.259l-20.719-12.722l5.866-23.595c0.717-2.884-0.336-5.92-2.686-7.739c-2.35-1.82-5.553-2.081-8.165-0.665
			l-21.377,11.583l-17.5-16.878c-2.139-2.063-5.294-2.668-8.046-1.543c-2.75,1.125-4.578,3.768-4.658,6.739l-0.658,24.304
			l-23.367,6.717c-2.856,0.821-4.958,3.251-5.359,6.196s0.974,5.849,3.507,7.403l20.719,12.722l-5.866,23.595
			c-0.717,2.884,0.336,5.92,2.686,7.739c2.349,1.82,5.552,2.081,8.165,0.665l21.377-11.583l17.5,16.878
			c1.425,1.375,3.301,2.102,5.208,2.102c0.956,0,1.919-0.183,2.838-0.558c2.75-1.125,4.578-3.768,4.658-6.739l0.658-24.305
			l23.367-6.717c2.856-0.821,4.958-3.251,5.359-6.196C292.58,248.718,291.205,245.813,288.672,244.259z M254.03,251.676
			c-3.142,0.903-5.336,3.737-5.425,7.005l-0.346,12.791l-9.208-8.881c-1.433-1.382-3.311-2.102-5.208-2.102
			c-1.219,0-2.447,0.297-3.571,0.906l-11.25,6.095l3.087-12.416c0.789-3.172-0.568-6.49-3.354-8.201l-10.903-6.694l12.296-3.535
			c3.142-0.903,5.336-3.737,5.425-7.005l0.346-12.79l9.209,8.881c2.354,2.27,5.906,2.752,8.779,1.196l11.249-6.095l-3.087,12.416
			c-0.789,3.172,0.568,6.49,3.354,8.201l10.903,6.694L254.03,251.676z"/>
	</g>
</g>
<g>
	<g>
		<path d="M168.413,211.036l-73.446-25.079c-3.92-1.339-8.183,0.754-9.521,4.674c-1.338,3.92,0.754,8.182,4.674,9.521l73.446,25.079
			c0.803,0.274,1.621,0.404,2.424,0.404c3.12,0,6.033-1.961,7.097-5.078C174.425,216.637,172.333,212.374,168.413,211.036z"/>
	</g>
</g>
<g>
	<g>
		<path d="M223.508,164.176L195.81,69.011c-1.158-3.978-5.323-6.264-9.297-5.106c-3.977,1.157-6.263,5.32-5.105,9.297l27.697,95.167
			c0.954,3.277,3.948,5.406,7.198,5.406c0.694,0,1.4-0.097,2.099-0.301C222.38,172.316,224.666,168.154,223.508,164.176z"/>
	</g>
</g>
<g>
	<g>
		<path d="M354.574,92.46c-3.275-2.536-7.985-1.938-10.522,1.338l-63.808,82.392c-2.537,3.274-1.938,7.985,1.337,10.521
			c1.367,1.058,2.982,1.571,4.587,1.571c2.24,0,4.457-1,5.935-2.908l63.808-82.392C358.447,99.707,357.849,94.996,354.574,92.46z"/>
	</g>
</g>
<g>
	<g>
		<path d="M271.458,89.829c-4.045-0.901-8.051,1.647-8.951,5.69l-19.257,86.473c-0.901,4.044,1.647,8.051,5.69,8.951
			c0.549,0.123,1.097,0.182,1.637,0.182c3.437,0,6.536-2.378,7.314-5.872l19.257-86.473
			C278.048,94.737,275.501,90.73,271.458,89.829z"/>
	</g>
</g>
<g>
	<g>
		<path d="M193.937,184.308l-37.923-42.677c-2.751-3.096-7.491-3.376-10.588-0.625c-3.096,2.751-3.376,7.492-0.625,10.588
			l37.923,42.678c1.482,1.668,3.541,2.518,5.609,2.518c1.771,0,3.55-0.625,4.979-1.894
			C196.408,192.145,196.688,187.404,193.937,184.308z"/>
	</g>
</g>
<g>
	<g>
		<path d="M168.966,249.544c-0.326-4.13-3.934-7.21-8.067-6.887l-43.2,3.414c-4.129,0.326-7.212,3.938-6.886,8.067
			c0.31,3.928,3.594,6.91,7.468,6.91c0.198,0,0.398-0.008,0.599-0.024l43.2-3.413C166.209,257.285,169.292,253.673,168.966,249.544z
			"/>
	</g>
</g>
<g>
	<g>
		<path d="M198.105,20.556c-0.792-6.235-3.966-11.789-8.936-15.638c-10.259-7.945-25.068-6.062-33.015,4.196
			c-7.945,10.261-6.062,25.071,4.197,33.017c4.166,3.227,9.176,4.931,14.361,4.931c1,0,2.007-0.063,3.015-0.192
			c6.235-0.792,11.789-3.966,15.638-8.936S198.898,26.792,198.105,20.556z M181.505,28.749c-1.396,1.802-3.409,2.953-5.67,3.24
			c-2.259,0.287-4.499-0.323-6.3-1.718c-1.802-1.396-2.953-3.409-3.24-5.67c-0.286-2.262,0.324-4.499,1.719-6.3
			c1.68-2.168,4.205-3.305,6.756-3.305c1.825,0,3.664,0.582,5.214,1.783c1.802,1.396,2.953,3.409,3.24,5.67
			C183.511,24.71,182.901,26.947,181.505,28.749z"/>
	</g>
</g>
<g>
	<g>
		<path d="M69.058,174.095c-0.793-6.235-3.966-11.789-8.936-15.638c-4.97-3.849-11.141-5.533-17.376-4.739
			c-6.235,0.792-11.789,3.966-15.638,8.936c-3.849,4.97-5.532,11.141-4.739,17.376c0.793,6.235,3.966,11.789,8.936,15.638
			c4.166,3.227,9.176,4.931,14.361,4.931c1-0.001,2.007-0.064,3.015-0.192c6.235-0.792,11.789-3.966,15.638-8.936
			S69.851,180.33,69.058,174.095z M52.46,182.286c-1.395,1.801-3.409,2.953-5.67,3.24c-2.26,0.286-4.498-0.323-6.3-1.719
			c-1.802-1.394-2.953-3.408-3.24-5.669c-0.288-2.261,0.323-4.498,1.718-6.3c1.396-1.802,3.409-2.953,5.67-3.24
			c0.366-0.046,0.73-0.069,1.093-0.069c1.88,0,3.697,0.618,5.207,1.788c1.802,1.396,2.953,3.409,3.24,5.669
			C54.466,178.247,53.855,180.485,52.46,182.286z"/>
	</g>
</g>
<g>
	<g>
		<path d="M393.84,41.755c-4.97-3.849-11.141-5.532-17.376-4.739c-6.235,0.792-11.789,3.966-15.638,8.936
			c-3.849,4.97-5.532,11.141-4.739,17.376c0.792,6.237,3.965,11.791,8.935,15.639c4.279,3.313,9.348,4.917,14.383,4.917
			c7.035,0,14-3.134,18.631-9.114C405.981,64.512,404.099,49.701,393.84,41.755z M386.176,65.588
			c-2.88,3.72-8.251,4.402-11.97,1.522c-1.802-1.396-2.953-3.409-3.24-5.67c-0.287-2.262,0.324-4.499,1.719-6.301
			c1.396-1.802,3.409-2.953,5.67-3.24c0.366-0.047,0.731-0.069,1.093-0.069c1.88,0,3.697,0.618,5.207,1.787
			C388.375,56.498,389.057,61.868,386.176,65.588z"/>
	</g>
</g>
<g>
	<g>
		<path d="M328.998,367.2l-42.657-64.836c-2.277-3.46-6.928-4.419-10.388-2.143c-3.46,2.277-4.42,6.927-2.144,10.388l42.657,64.836
			c1.441,2.19,3.833,3.378,6.272,3.378c1.415,0,2.845-0.4,4.115-1.235C330.315,375.312,331.274,370.661,328.998,367.2z"/>
	</g>
</g>
<g>
	<g>
		<path d="M416.997,240.307l-99.069-3.008c-4.148-0.113-7.598,3.128-7.724,7.269c-0.125,4.141,3.129,7.599,7.269,7.725l99.069,3.008
			c0.078,0.002,0.155,0.004,0.232,0.004c4.037,0,7.369-3.21,7.492-7.272C424.392,243.891,421.137,240.433,416.997,240.307z"/>
	</g>
</g>
<g>
	<g>
		<path d="M377.914,172.273c-1.884-3.689-6.401-5.153-10.09-3.27l-78.905,40.279c-3.689,1.883-5.153,6.401-3.27,10.09
			c1.326,2.597,3.957,4.092,6.686,4.092c1.147,0,2.312-0.264,3.404-0.822l78.905-40.279
			C378.333,180.48,379.797,175.963,377.914,172.273z"/>
	</g>
</g>
<g>
	<g>
		<path d="M356.641,297.005l-50.807-26.039c-3.686-1.889-8.205-0.433-10.095,3.253c-1.889,3.687-0.433,8.206,3.253,10.096
			l50.807,26.039c1.095,0.562,2.264,0.827,3.415,0.827c2.724,0,5.352-1.489,6.68-4.08
			C361.783,303.414,360.327,298.895,356.641,297.005z"/>
	</g>
</g>
<g>
	<g>
		<path d="M265.109,360.233l-7.503-42.681c-0.717-4.08-4.608-6.805-8.685-6.088c-4.08,0.717-6.806,4.606-6.088,8.685l7.503,42.681
			c0.64,3.641,3.805,6.203,7.378,6.203c0.431,0,0.868-0.038,1.307-0.115C263.101,368.201,265.827,364.312,265.109,360.233z"/>
	</g>
</g>
<g>
	<g>
		<path d="M480.711,230.703c-4.97-3.849-11.141-5.532-17.376-4.739c-6.235,0.792-11.789,3.966-15.638,8.936
			s-5.532,11.141-4.739,17.376c0.792,6.236,3.966,11.79,8.936,15.638c4.166,3.227,9.176,4.931,14.361,4.931
			c1,0,2.007-0.063,3.016-0.191c6.235-0.793,11.789-3.966,15.638-8.936C492.852,253.459,490.97,238.648,480.711,230.703z
			 M473.047,254.534c-1.396,1.802-3.409,2.952-5.67,3.24c-2.26,0.287-4.498-0.323-6.3-1.718c-1.802-1.396-2.953-3.409-3.24-5.67
			c-0.288-2.261,0.323-4.499,1.718-6.3c1.396-1.802,3.409-2.953,5.67-3.24c0.366-0.047,0.731-0.069,1.093-0.069
			c1.88,0,3.697,0.618,5.207,1.787C475.245,245.443,475.928,250.814,473.047,254.534z"/>
	</g>
</g>
<g>
	<g>
		<path d="M364.34,394.058c-10.259-7.945-25.069-6.063-33.015,4.196c-7.945,10.259-6.063,25.069,4.196,33.015
			c4.166,3.227,9.176,4.931,14.361,4.931c1,0,2.007-0.063,3.016-0.192c6.235-0.792,11.789-3.966,15.638-8.936
			C376.481,416.813,374.599,402.004,364.34,394.058z M356.677,417.888c-1.396,1.802-3.409,2.953-5.67,3.24
			c-2.259,0.287-4.499-0.323-6.3-1.718c-3.72-2.88-4.402-8.25-1.521-11.97c1.396-1.802,3.409-2.952,5.67-3.24
			c2.262-0.289,4.499,0.323,6.3,1.718C358.875,408.799,359.558,414.168,356.677,417.888z"/>
	</g>
</g>
<g>
	<g>
		<path d="M185.999,298.704c-2.977-2.882-7.724-2.805-10.605,0.17c-3.729,3.85-91.78,95.526-132.94,202.941
			c-1.482,3.868,0.452,8.205,4.32,9.687c0.883,0.338,1.79,0.499,2.682,0.499c3.017,0,5.861-1.833,7.005-4.818
			c40.038-104.488,128.817-196.952,129.71-197.874C189.051,306.332,188.974,301.584,185.999,298.704z"/>
	</g>
</g>
<g>
</g>
<g>
</g>
<g>
</g>
<g>
</g>
<g>
</g>
<g>
</g>
<g>
</g>
<g>
</g>
<g>
</g>
<g>
</g>
<g>
</g>
<g>
</g>
<g>
</g>
<g>
</g>
<g>
</g>
</svg>
